<svg id="Layer_1" data-name="Layer 1" xmlns="http://www.w3.org/2000/svg" viewBox="0 0 123.53 138.04"><defs><style>.cls-1,.cls-3{fill:#e9f0f4;}.cls-2{fill:#c2c9cc;}.cls-3{stroke:#dae1e5;stroke-width:4.08px;}.cls-3,.cls-5,.cls-6{stroke-miterlimit:10;}.cls-4{fill:#fff;}.cls-5,.cls-6{fill:none;stroke:#fff;}.cls-5{stroke-width:1.04px;}.cls-6{stroke-width:2.04px;}</style></defs><ellipse class="cls-1" cx="60.75" cy="133.14" rx="41.64" ry="4.9"/><path class="cls-2" d="M9.59,35.34,28.9,104.62a4.32,4.32,0,0,0,2.68,2.86l31,11.49a4.81,4.81,0,0,0,5.32-1.42L90,91.19a4.29,4.29,0,0,0,.89-3.93L71.61,18.05a4.49,4.49,0,0,0-5.62-3L12.86,29.89A4.49,4.49,0,0,0,9.59,35.34Z" transform="translate(-9.43 -0.96)"/><path class="cls-3" d="M64.22,6,34.59,80.13A4.77,4.77,0,0,0,35,84.46l19.58,31a5.35,5.35,0,0,0,5.65,2.34l37.3-8.34a4.78,4.78,0,0,0,3.44-2.87l29.6-74a5,5,0,0,0-3-6.42L70.79,3.39A5,5,0,0,0,64.22,6Z" transform="translate(-9.43 -0.96)"/><circle class="cls-4" cx="86.52" cy="99.68" r="2.04"/><path class="cls-2" d="M87.27,75.08,79.05,68.6,69,71.7a1.64,1.64,0,0,1-2-2.12l3.63-9.84-6-8.56A1.63,1.63,0,0,1,66,48.61L76.48,49l6.27-8.4a1.64,1.64,0,0,1,2.88.54l2.84,10.08,9.92,3.38a1.63,1.63,0,0,1,.38,2.9l-8.71,5.82-.15,10.48A1.63,1.63,0,0,1,87.27,75.08Z" transform="translate(-9.43 -0.96)"/><circle class="cls-4" cx="68.33" cy="53.28" r="2.08"/><circle class="cls-4" cx="76.51" cy="54.87" r="2.08"/><path class="cls-5" d="M76.17,62.42A5.22,5.22,0,0,1,84.36,64" transform="translate(-9.43 -0.96)"/><path class="cls-6" d="M49,92.47l7.5,13.5a7.17,7.17,0,0,0,8.12,3.44l25.23-6.73" transform="translate(-9.43 -0.96)"/></svg>