<svg id="Layer_1" data-name="Layer 1" xmlns="http://www.w3.org/2000/svg" viewBox="0 0 131.4 137.69"><defs><style>.cls-1,.cls-2{fill:#e9f0f4;}.cls-2{stroke:#dae1e5;stroke-width:6.36px;}.cls-2,.cls-5,.cls-7{stroke-miterlimit:10;}.cls-3{fill:#c2c9cc;}.cls-4{fill:#dae1e5;}.cls-5,.cls-7{fill:none;stroke:#fff;}.cls-5{stroke-width:2.28px;}.cls-6{fill:#fff;}.cls-7{stroke-width:1.41px;}</style></defs><ellipse class="cls-1" cx="74.38" cy="132.57" rx="43.52" ry="5.12"/><circle class="cls-2" cx="72.62" cy="58.78" r="55.6"/><circle class="cls-3" cx="73.35" cy="42.09" r="21.11"/><path class="cls-4" d="M39.51,96.92a52.77,52.77,0,0,0,79-1.11,42.24,42.24,0,0,0-79,1.11Z" transform="translate(-5.86 -1.31)"/><path class="cls-5" d="M124,69.78a48.53,48.53,0,0,0-.09-19.12,49.6,49.6,0,0,0-13.83-25" transform="translate(-5.86 -1.31)"/><ellipse class="cls-6" cx="102.63" cy="20.87" rx="2.25" ry="2.32" transform="translate(0.59 61.02) rotate(-34.81)"/><path class="cls-3" d="M48.55,50.58,34.73,47.4,24.27,57a2.2,2.2,0,0,1-3.68-1.43L19.33,41.43,7,34.45a2.2,2.2,0,0,1,.23-4l13.05-5.56L23.08,11a2.2,2.2,0,0,1,3.82-1l9.32,10.7,14.1-1.61a2.2,2.2,0,0,1,2.14,3.32L45.17,34.61l5.89,12.9A2.21,2.21,0,0,1,48.55,50.58Z" transform="translate(-5.86 -1.31)"/><circle class="cls-6" cx="18.98" cy="29.27" r="2.82"/><circle class="cls-6" cx="29.92" cy="26.47" r="2.82"/><path class="cls-7" d="M27.64,41.51a7.06,7.06,0,0,1,10.94-2.79" transform="translate(-5.86 -1.31)"/></svg>