<svg id="Layer_1" data-name="Layer 1" xmlns="http://www.w3.org/2000/svg" viewBox="0 0 130.9 136"><defs><style>.cls-1,.cls-2{fill:#e9f0f4;}.cls-2{stroke:#dae1e5;}.cls-2,.cls-3,.cls-6,.cls-7{stroke-miterlimit:10;}.cls-2,.cls-3{stroke-width:3.92px;}.cls-3{fill:#dae1e5;stroke:#c2c9cc;}.cls-4{fill:#c2c9cc;}.cls-5{fill:#fff;}.cls-6,.cls-7{fill:none;stroke:#fff;}.cls-6{stroke-width:1.57px;}.cls-7{stroke-width:1.83px;}</style></defs><ellipse class="cls-1" cx="65.45" cy="131.05" rx="42.1" ry="4.95"/><path class="cls-2" d="M121.34,51.93,70.75,68.37a1,1,0,0,1-.54,0L19.62,51.93a1.35,1.35,0,0,1,.06-2.47l50.6-12.33a.72.72,0,0,1,.41,0l50.59,12.33A1.35,1.35,0,0,1,121.34,51.93Z" transform="translate(-5.03 -2)"/><path class="cls-2" d="M123.76,56.21V96.59L71,118c-.25.1-.51-.13-.51-.45V68.45l49.26-16C121.77,51.79,123.76,53.65,123.76,56.21Z" transform="translate(-5.03 -2)"/><path class="cls-3" d="M17.21,52.6v44l51.84,21c.7.29,1.43-.35,1.43-1.25V68.45L18.36,51.52C17.78,51.33,17.21,51.87,17.21,52.6Z" transform="translate(-5.03 -2)"/><path class="cls-2" d="M125.59,53.37l7,8.59L82.91,79.27,72.66,70.35a1.64,1.64,0,0,1,.57-2.79l48-15.6A4,4,0,0,1,125.59,53.37Z" transform="translate(-5.03 -2)"/><path class="cls-3" d="M15.13,53.68,8.33,62,58.05,79.27l9.67-8.41A2.08,2.08,0,0,0,67,67.32L20.05,52.07A4.5,4.5,0,0,0,15.13,53.68Z" transform="translate(-5.03 -2)"/><path class="cls-4" d="M91.93,48.06,76.51,44.52,64.86,55.21a2.47,2.47,0,0,1-4.12-1.6L59.35,37.86,45.58,30.07a2.46,2.46,0,0,1,.24-4.4l14.56-6.2L63.52,4a2.46,2.46,0,0,1,4.27-1.12L78.18,14.77,93.89,13a2.46,2.46,0,0,1,2.39,3.71L88.15,30.25l6.57,14.39A2.47,2.47,0,0,1,91.93,48.06Z" transform="translate(-5.03 -2)"/><circle class="cls-5" cx="60.46" cy="23.75" r="3.15"/><circle class="cls-5" cx="72.66" cy="20.64" r="3.15"/><path class="cls-6" d="M68.61,38A7.86,7.86,0,0,1,80.8,34.83" transform="translate(-5.03 -2)"/><circle class="cls-5" cx="113.12" cy="74.34" r="1.83"/><path class="cls-7" d="M118.15,81v7.32a5.09,5.09,0,0,1-3.47,4.83L96.17,99.28" transform="translate(-5.03 -2)"/></svg>