<svg id="Layer_1" data-name="Layer 1" xmlns="http://www.w3.org/2000/svg" viewBox="0 0 114.97 137.27"><defs><style>.cls-1{fill:#c2c9cc;}.cls-2,.cls-6{fill:#e9f0f4;}.cls-2{stroke:#dae1e5;stroke-width:5.57px;}.cls-2,.cls-3,.cls-5{stroke-miterlimit:10;}.cls-3,.cls-5{fill:none;stroke:#fff;}.cls-3{stroke-width:2.79px;}.cls-4{fill:#fff;}.cls-5{stroke-width:1.11px;}</style></defs><rect class="cls-1" x="102.92" y="83.22" width="13.51" height="38.41" rx="0.69" transform="translate(-52.73 99.4) rotate(-42.35)"/><circle class="cls-2" cx="51.57" cy="51.57" r="48.78"/><path class="cls-3" d="M65.31,90.41c1.48.09,19.27.85,30.66-13.94s6-32.1,5.58-33.45" transform="translate(-12.35 -1.21)"/><circle class="cls-4" cx="85.02" cy="32.05" r="2.79"/><path class="cls-1" d="M69.52,65.15,58.63,62.47l-8.37,7.46a1.75,1.75,0,0,1-2.9-1.18l-.82-11.18-9.68-5.65a1.74,1.74,0,0,1,.22-3.12l10.38-4.24,2.39-11a1.75,1.75,0,0,1,3-.76l7.23,8.56,11.16-1.1A1.74,1.74,0,0,1,72.93,43L67,52.49l4.5,10.26A1.75,1.75,0,0,1,69.52,65.15Z" transform="translate(-12.35 -1.21)"/><circle class="cls-4" cx="38.67" cy="47.85" r="2.23"/><circle class="cls-4" cx="47.34" cy="45.77" r="2.23"/><path class="cls-5" d="M53.1,57.74a5.57,5.57,0,0,1,8.67-2.08" transform="translate(-12.35 -1.21)"/><ellipse class="cls-6" cx="58.69" cy="132.78" rx="38.2" ry="4.49"/></svg>